<svg width="20" height="19" viewBox="0 0 20 19" fill="none" xmlns="http://www.w3.org/2000/svg">
<path d="M4.99748 11.6308L3.6308 17.5488C3.58848 17.728 3.60118 17.9158 3.66725 18.0877C3.73332 18.2596 3.84969 18.4075 4.00115 18.5122C4.15261 18.6169 4.33213 18.6735 4.51625 18.6746C4.70038 18.6757 4.88056 18.6212 5.03325 18.5183L10.0276 15.1888L15.0219 18.5183C15.1782 18.6221 15.3624 18.6755 15.5499 18.6714C15.7374 18.6673 15.9191 18.6058 16.0707 18.4953C16.2222 18.3849 16.3363 18.2306 16.3976 18.0534C16.4588 17.8761 16.4643 17.6844 16.4134 17.5039L14.7358 11.6336L18.8963 7.88944C19.0296 7.76946 19.1247 7.61304 19.17 7.43955C19.2153 7.26605 19.2088 7.08308 19.1512 6.91327C19.0936 6.74345 18.9875 6.59424 18.8461 6.48408C18.7046 6.37392 18.5339 6.30764 18.3552 6.29345L13.126 5.87703L10.8632 0.868013C10.791 0.706722 10.6737 0.56976 10.5255 0.473657C10.3772 0.377554 10.2043 0.326416 10.0276 0.326416C9.8509 0.326416 9.67798 0.377554 9.52971 0.473657C9.38143 0.56976 9.26414 0.706722 9.19199 0.868013L6.92917 5.87703L1.70002 6.29254C1.52433 6.30645 1.35637 6.37069 1.21623 6.47757C1.07609 6.58445 0.969713 6.72943 0.909818 6.89518C0.849923 7.06094 0.839048 7.24044 0.878496 7.41221C0.917944 7.58398 1.00604 7.74074 1.13225 7.86376L4.99748 11.6308ZM7.61435 7.66288C7.77807 7.64998 7.9353 7.59328 8.06957 7.49871C8.20384 7.40414 8.31019 7.27519 8.37749 7.12538L10.0276 3.47387L11.6777 7.12538C11.745 7.27519 11.8513 7.40414 11.9856 7.49871C12.1199 7.59328 12.2771 7.64998 12.4408 7.66288L16.0841 7.95181L13.0838 10.6521C12.8233 10.887 12.7197 11.2484 12.8151 11.5859L13.9644 15.608L10.5376 13.3231C10.3872 13.2222 10.2101 13.1683 10.029 13.1683C9.84782 13.1683 9.67077 13.2222 9.52036 13.3231L5.93948 15.7107L6.90257 11.5409C6.93789 11.3876 6.93315 11.2277 6.88881 11.0767C6.84448 10.9257 6.76203 10.7887 6.64942 10.6787L3.86286 7.9619L7.61435 7.66288Z" fill="#F3CD03"/>
</svg>
