<svg width="20" height="19" viewBox="0 0 20 19" fill="none" xmlns="http://www.w3.org/2000/svg">
<path d="M19.1228 6.9125C19.0651 6.74268 18.959 6.59347 18.8175 6.48328C18.676 6.3731 18.5054 6.30675 18.3266 6.29245L13.0974 5.87694L10.8346 0.867922C10.7626 0.706592 10.6453 0.569566 10.4971 0.473381C10.3489 0.377196 10.176 0.325964 9.99932 0.325867C9.82263 0.32577 9.64968 0.376812 9.50136 0.472835C9.35303 0.568857 9.23567 0.705754 9.16343 0.867005L6.90061 5.87694L1.67146 6.29245C1.49577 6.30636 1.3278 6.3706 1.18767 6.47748C1.04753 6.58436 0.941149 6.72934 0.881253 6.89509C0.821358 7.06085 0.810484 7.24035 0.849931 7.41212C0.889379 7.58389 0.977478 7.74065 1.10369 7.86367L4.968 11.6307L3.60132 17.5487C3.55982 17.7279 3.57312 17.9154 3.63949 18.0868C3.70587 18.2583 3.82225 18.4059 3.97353 18.5104C4.12482 18.6149 4.30403 18.6716 4.4879 18.673C4.67177 18.6744 4.85182 18.6205 5.00469 18.5183L9.99903 15.1887L14.9934 18.5183C15.1496 18.622 15.3339 18.6754 15.5214 18.6713C15.7088 18.6672 15.8906 18.6057 16.0421 18.4953C16.1937 18.3848 16.3077 18.2305 16.369 18.0533C16.4303 17.876 16.4358 17.6843 16.3848 17.5038L14.7072 11.6335L18.8678 7.88935C19.1402 7.64353 19.2402 7.26013 19.1228 6.9125V6.9125Z" fill="#F3CD03"/>
</svg>
